<?xml version="1.0" encoding="UTF-8" standalone="no"?>
<!-- Generated by IcoMoon.io -->

<svg
   xmlns:dc="http://purl.org/dc/elements/1.1/"
   xmlns:cc="http://creativecommons.org/ns#"
   xmlns:rdf="http://www.w3.org/1999/02/22-rdf-syntax-ns#"
   xmlns:svg="http://www.w3.org/2000/svg"
   xmlns="http://www.w3.org/2000/svg"
   xmlns:sodipodi="http://sodipodi.sourceforge.net/DTD/sodipodi-0.dtd"
   xmlns:inkscape="http://www.inkscape.org/namespaces/inkscape"
   version="1.1"
   width="64"
   height="64"
   viewBox="0 0 64 64"
   id="svg2"
   inkscape:version="0.48.5 r10040"
   sodipodi:docname="circle-up2.svg">
  <metadata
     id="metadata12">
    <rdf:RDF>
      <cc:Work
         rdf:about="">
        <dc:format>image/svg+xml</dc:format>
        <dc:type
           rdf:resource="http://purl.org/dc/dcmitype/StillImage" />
        <dc:title></dc:title>
      </cc:Work>
    </rdf:RDF>
  </metadata>
  <defs
     id="defs10" />
  <sodipodi:namedview
     pagecolor="#ffffff"
     bordercolor="#666666"
     borderopacity="1"
     objecttolerance="10"
     gridtolerance="10"
     guidetolerance="10"
     inkscape:pageopacity="0"
     inkscape:pageshadow="2"
     inkscape:window-width="1920"
     inkscape:window-height="1017"
     id="namedview8"
     showgrid="false"
     inkscape:zoom="10.429825"
     inkscape:cx="9.4847458"
     inkscape:cy="37.642076"
     inkscape:window-x="-8"
     inkscape:window-y="-8"
     inkscape:window-maximized="1"
     inkscape:current-layer="svg2" />
  <path
     d="M0 32c0 17.673 14.327 32 32 32s32-14.327 32-32-14.327-32-32-32-32 14.327-32 32zM58 32c0 14.359-11.641 26-26 26s-26-11.641-26-26 11.641-26 26-26 26 11.641 26 26z"
     fill="#000000"
     id="path4" />
  <path
     d="M44.172 41.828l5.657-5.657-17.828-17.828-17.828 17.828 5.657 5.657 12.172-12.172z"
     fill="#000000"
     id="path6" />
  <path
     style="fill:#d3d3d3;fill-opacity:1"
     d="M 25.636386,63.178536 C 14.842353,60.905041 6.0027848,53.24381 2.0531576,42.739005 -0.32923407,36.402568 -0.33749088,27.614433 2.0330303,21.316538 5.4353581,12.277386 12.264467,5.4356987 21.260996,2.0531576 c 6.360162,-2.39131177 15.117846,-2.39131177 21.478009,0 10.574831,3.9759556 18.237583,12.8656244 20.450587,23.7250144 0.734601,3.604743 0.734601,8.838913 0,12.443656 -2.55536,12.539357 -12.428407,22.412404 -24.967764,24.967764 -3.522593,0.717857 -9.148182,0.712916 -12.585442,-0.01106 l 0,9e-6 z m 13.414461,-6.047591 c 4.73683,-1.413782 8.095458,-3.383769 11.395895,-6.684203 3.340797,-3.3408 5.420377,-6.944646 6.828813,-11.834124 0.529104,-1.836816 0.615876,-2.768455 0.615876,-6.612618 0,-4.877529 -0.336304,-6.646397 -2.012554,-10.585524 C 53.49491,15.812232 48.187767,10.50509 42.585524,8.1211216 38.646397,6.4448729 36.877529,6.1085706 32,6.1085706 c -4.877529,0 -6.646397,0.3363023 -10.585524,2.012551 C 15.812232,10.50509 10.50509,15.812232 8.1211216,21.414476 6.4448729,25.353603 6.1085706,27.122471 6.1085706,32 c 0,4.877529 0.3363023,6.646397 2.012551,10.585524 2.3788524,5.590221 7.7012454,10.918869 13.2619044,13.277489 4.149844,1.760209 6.422165,2.167536 11.430533,2.048992 3.239794,-0.07668 4.338099,-0.214215 6.237288,-0.78106 l 0,0 z"
     id="path2989"
     inkscape:connector-curvature="0" />
  <path
     style="fill:#d3d3d3;fill-opacity:1"
     d=""
     id="path3759"
     inkscape:connector-curvature="0" />
  <path
     style="fill:#d3d3d3;fill-opacity:1"
     d="M 55.846544,11.032417 C 55.423976,10.554856 55.12727,10.239429 54.576761,9.6825137 51.417451,6.4864405 47.5872,3.9656061 43.313559,2.2697705 42.717102,2.0330884 42.476832,1.9440122 41.991525,1.7796457 40.125329,1.1475927 38.024007,0.6997492 35.762712,0.45213216 33.816785,0.23904874 31.581115,0.19593013 29.601695,0.33330667 27.122427,0.50537382 24.833583,0.91061001 22.712735,1.5529861 20.64129,2.1803986 18.158142,3.2896793 16.042373,4.5327935 13.619808,5.9561647 11.407895,7.6744707 9.4570201,9.6485686 8.9496404,10.161988 8.5137551,10.628635 8.1451336,11.053036 c -0.129549,0.149153 -0.2418963,0.278433 -0.2496607,0.287289 -0.00776,0.0089 -0.014085,-0.06742 -0.014046,-0.169492 l 7.1e-5,-0.185593 0.1802308,-0.20339 C 10.072383,8.5128337 12.489765,6.4664359 15.043992,4.871123 20.722576,1.324407 27.252063,-0.33210711 33.966102,0.07063217 39.001695,0.37269043 43.90358,1.8725762 48.245763,4.4399427 c 2.885752,1.7062349 5.424217,3.8001659 7.708818,6.3588563 l 0.196738,0.220339 6.1e-4,0.173729 c 3.39e-4,0.09555 -0.0017,0.173729 -0.0045,0.173729 -0.0028,0 -0.138215,-0.15038 -0.300848,-0.334179 l 2e-6,0 z"
     id="path3761"
     inkscape:connector-curvature="0" />
  <path
     style="fill:#d3d3d3;fill-opacity:1"
     d="M 0.69849131,38.558823 C 0.67037063,38.513323 0.45212853,37.296273 0.36008775,36.671681 0.12387056,35.068701 0.0330473,33.775167 0.03299439,32.01311 0.03294448,30.35117 0.10253259,29.261304 0.3075012,27.713878 1.0180815,22.349296 3.1376028,17.179503 6.4126383,12.822639 c 0.3727732,-0.49591 1.2939064,-1.643899 1.438041,-1.792201 0.00755,-0.0078 0.013721,0.06087 0.013714,0.152542 -1.29e-5,0.159988 -0.012343,0.181609 -0.3077024,0.539548 -2.2146325,2.683866 -3.9375064,5.593467 -5.2689885,8.898305 -1.1288833,2.801973 -1.76468607,5.802301 -1.98621709,9.372881 -0.0518948,0.836428 -0.0515776,3.138302 5.4881e-4,3.983051 0.058523,0.948409 0.15940502,1.974419 0.27664217,2.81356 0.0928356,0.664483 0.24743536,1.590542 0.29002926,1.737288 0.0131507,0.04531 -0.00287,0.05932 -0.0678109,0.05932 -0.0467662,0 -0.0928479,-0.01265 -0.10240373,-0.02811 l 1.4e-7,0 z"
     id="path3763"
     inkscape:connector-curvature="0" />
  <path
     style="fill:#d3d3d3;fill-opacity:1"
     d="m 63.173624,38.377077 c 0.116215,-0.498068 0.299589,-1.705055 0.400722,-2.6376 0.06538,-0.602879 0.124462,-1.550203 0.160483,-2.573249 0.0535,-1.519416 -0.01265,-3.548034 -0.160363,-4.918276 -0.120878,-1.121273 -0.272925,-2.064315 -0.489158,-3.033899 -1.114692,-4.998244 -3.391561,-9.612574 -6.690068,-13.55817 -0.211047,-0.25245 -0.225748,-0.280868 -0.225748,-0.436388 l 0,-0.166353 0.461088,0.555032 c 4.098,4.932937 6.637935,11.072007 7.214008,17.436388 0.169404,1.871559 0.170234,4.032897 0.0023,5.881356 -0.09587,1.054966 -0.290761,2.408455 -0.483228,3.355932 -0.05483,0.269894 -0.06427,0.288799 -0.149214,0.298617 l -0.09068,0.01048 0.0499,-0.213871 0,0 z"
     id="path3765"
     inkscape:connector-curvature="0" />
  <path
     style="fill:#d3d3d3;fill-opacity:1"
     d=""
     id="path3767"
     inkscape:connector-curvature="0" />
  <path
     style="fill:#d3d3d3;fill-opacity:1"
     d="m 30.627119,63.956182 c -0.94168,-0.05701 -1.390867,-0.09004 -1.81356,-0.133372 C 22.099437,63.134604 16.014102,60.486401 10.898305,56.026486 10.205327,55.422353 8.5831349,53.804622 8.0101342,53.146257 4.4954522,49.10797 2.1495239,44.604486 0.91639764,39.528394 0.68149848,38.561445 0.6848854,38.586935 0.79130151,38.586935 c 0.0740188,0 0.0902478,0.01895 0.10889311,0.127118 0.0538557,0.312452 0.39693968,1.706852 0.55255658,2.245763 0.7352122,2.546084 2.0354727,5.38122 3.6157454,7.883905 1.7797271,2.818561 4.091504,5.460486 6.6433674,7.592114 3.870327,3.232971 8.401565,5.484846 13.324678,6.621926 1.914459,0.442178 3.635938,0.625624 6.285492,0.669803 2.811185,0.04687 5.320535,-0.167981 7.423729,-0.635632 2.564729,-0.570275 4.85943,-1.380828 7.237288,-2.55641 2.026596,-1.001924 3.670983,-2.027961 5.423729,-3.384205 1.740264,-1.346588 3.439196,-2.97582 4.893912,-4.693143 3.151878,-3.720855 5.462969,-8.246908 6.598271,-12.922087 0.229556,-0.945309 0.230871,-0.949152 0.324423,-0.949152 0.08923,0 0.08973,-0.0033 -0.139783,0.941459 -1.233128,5.076092 -3.579054,9.579576 -7.093739,13.617863 -0.573,0.658365 -2.195189,2.276096 -2.888169,2.880229 -2.259176,1.969534 -4.523593,3.472008 -7.178539,4.763068 -3.660227,1.779911 -7.445695,2.788096 -11.719766,3.12133 -0.448763,0.03499 -3.175987,0.06953 -3.576271,0.0453 l 0,0 z"
     id="path3769"
     inkscape:connector-curvature="0" />
  <path
     style="fill:#d3d3d3;fill-opacity:1"
     d="m 35.748814,57.740492 c 1.379802,-0.209401 2.558563,-0.470608 3.757801,-0.832703 3.387326,-1.022761 6.489028,-2.701475 9.216775,-4.98833 0.934654,-0.783584 1.954492,-1.778726 2.78123,-2.71388 2.320216,-2.624483 4.099968,-5.721953 5.19559,-9.042373 0.492144,-1.491501 0.84287,-3.007359 1.068621,-4.618644 0.02612,-0.186441 0.05009,-0.316782 0.05326,-0.289648 0.0032,0.02714 -0.0066,0.221626 -0.02181,0.432204 -0.08388,1.164379 -0.225876,1.888364 -0.646869,3.298122 -1.17582,3.937397 -2.843144,7.073361 -5.2492,9.872881 -0.856572,0.996648 -1.973689,2.118683 -2.986125,2.999272 -2.701114,2.349354 -5.599692,3.927505 -9.39927,5.117498 -1.430723,0.44809 -2.348885,0.64924 -3.481868,0.762813 -0.558724,0.05601 -0.644262,0.05684 -0.288135,0.0028 l 0,0 z"
     id="path3771"
     inkscape:connector-curvature="0" />
  <path
     style="fill:#d3d3d3;fill-opacity:1"
     d="m 57.742793,28.28185 c -0.0014,-0.0233 -0.03277,-0.229237 -0.06962,-0.457627 -0.681295,-4.223171 -2.406768,-8.22533 -5.010489,-11.621613 -2.006533,-2.617313 -4.537907,-4.876431 -7.31218,-6.5257358 -0.181779,-0.108068 -0.337754,-0.2030225 -0.34661,-0.21101 -0.0092,-0.00825 0.02431,-0.014523 0.07754,-0.014523 0.08973,0 0.107039,0.00821 0.414407,0.1965365 1.345482,0.824393 2.676843,1.830944 3.973308,3.003951 0.421445,0.381312 1.469031,1.425826 1.838802,1.833411 2.12579,2.343174 3.613829,4.650034 4.728542,7.330508 1.049469,2.523584 1.476309,4.059913 1.687048,6.072204 0.01978,0.188864 0.03279,0.364288 0.02892,0.38983 -0.0068,0.04478 -0.0071,0.04492 -0.0097,0.0041 l 0,0 z"
     id="path3773"
     inkscape:connector-curvature="0" />
  <path
     style="fill:#d3d3d3;fill-opacity:1"
     d="M 44.636638,9.2592833 C 44.176031,8.9946411 42.816387,8.3264521 42.239666,8.0813053 40.297522,7.2557586 38.234164,6.6554106 36.211281,6.3273057 c -0.473804,-0.076849 -0.470312,-0.089526 0.01,-0.036274 1.893738,0.209962 3.319242,0.6012038 5.635769,1.5467848 0.931974,0.3804215 1.306969,0.5487683 1.976038,0.8871054 0.468817,0.2370725 1.248686,0.6636789 1.291471,0.7064639 0.0063,0.0063 -0.03079,0.010438 -0.08242,0.00919 -0.07051,-0.0017 -0.171459,-0.046835 -0.405488,-0.1812958 z"
     id="path3775"
     inkscape:connector-curvature="0" />
  <path
     style="fill:#d3d3d3;fill-opacity:1"
     d="m 8.5603586,20.477596 c 0,-0.01427 0.3471812,-0.687163 0.4707864,-0.912454 0.970334,-1.768594 2.159374,-3.421328 3.627676,-5.042373 0.387749,-0.428085 1.41383,-1.4565 1.825266,-1.829417 1.137232,-1.030763 2.203552,-1.862284 3.381356,-2.636793 1.29856,-0.8539174 2.42406,-1.4519264 3.898305,-2.0712762 2.518897,-1.0582216 4.147267,-1.5094317 6.194399,-1.7164258 0.347278,-0.035115 0.503232,-0.042181 0.322551,-0.014616 -0.672029,0.1025291 -1.286667,0.2139286 -1.822034,0.3302341 -5.574179,1.2109561 -10.590562,4.2292025 -14.306372,8.6078265 -1.279361,1.507569 -2.4353803,3.239645 -3.3122724,4.962814 -0.1675566,0.329263 -0.1701204,0.333069 -0.2245763,0.33341 -0.030297,1.9e-4 -0.055085,-0.0047 -0.055085,-0.01093 z"
     id="path3777"
     inkscape:connector-curvature="0" />
  <path
     style="fill:#d3d3d3;fill-opacity:1"
     d="M 10.861511,47.288348 C 10.69653,47.077834 10.212459,46.378993 9.9428336,45.962077 9.1506478,44.73714 8.5593461,43.608618 7.962438,42.182416 6.9144315,39.678398 6.471448,38.063403 6.263957,35.990223 c -0.037457,-0.374261 -0.038826,-0.524891 -0.00218,-0.24001 0.030833,0.2397 0.1260722,0.803754 0.2046197,1.211864 0.3313033,1.721359 0.8451354,3.423602 1.527186,5.059322 0.4329347,1.038282 1.0230327,2.215338 1.5974696,3.186441 0.4066263,0.687414 1.025065,1.631583 1.328601,2.028374 0.04046,0.05289 0.07357,0.100563 0.07357,0.105932 0,0.0054 -0.01843,0.0098 -0.04095,0.0098 -0.02716,0 -0.05772,-0.0214 -0.09076,-0.06356 z"
     id="path3779"
     inkscape:connector-curvature="0" />
  <path
     style="fill:#d3d3d3;fill-opacity:1"
     d="m 6.2315857,28.366357 c 0.017593,-0.348531 0.1133648,-1.133985 0.2045871,-1.67788 0.2167318,-1.292223 0.6245549,-2.661585 1.2546189,-4.212679 l 0.090064,-0.22172 0.04896,-0.0037 c 0.026928,-0.002 0.048959,0.0013 0.048959,0.0075 0,0.0062 -0.012803,0.04017 -0.028452,0.07559 -0.015649,0.03543 -0.090645,0.228904 -0.1666598,0.42995 -0.6798838,1.798184 -1.1183704,3.488298 -1.4178755,5.465096 -0.03884,0.256353 -0.040528,0.263154 -0.034202,0.137826 z"
     id="path3781"
     inkscape:connector-curvature="0" />
  <path
     style="fill:#d3d3d3;fill-opacity:1"
     d="m 28.391525,57.800352 c -2.048401,-0.206098 -3.661054,-0.614039 -5.886676,-1.489111 -1.636718,-0.643526 -2.745279,-1.186126 -4.011629,-1.963545 -2.762897,-1.696157 -5.423213,-4.130658 -7.454843,-6.822059 -0.128295,-0.169959 -0.130116,-0.173728 -0.08391,-0.173674 0.04132,4.8e-5 0.07477,0.03663 0.267298,0.292373 3.174929,4.217287 7.609258,7.40347 12.593491,9.048758 1.647295,0.543769 3.300308,0.912802 5.067797,1.131379 l 0.118644,0.01467 -0.11017,2.16e-4 c -0.06059,1.18e-4 -0.285593,-0.01744 -0.5,-0.03901 l 0,-1e-6 z"
     id="path3783"
     inkscape:connector-curvature="0" />
  <path
     style="fill:#d3d3d3;fill-opacity:1"
     d="m 7.8067896,22.187385 c 0.1386459,-0.351748 0.4684888,-1.113842 0.6303255,-1.456353 l 0.1132573,-0.239697 0.059701,-8.75e-4 c 0.032836,-4.82e-4 0.059701,0.001 0.059701,0.0033 0,0.0023 -0.019632,0.04314 -0.043627,0.09076 -0.1475328,0.292821 -0.5268189,1.136631 -0.6759472,1.503801 l -0.064497,0.158799 -0.051229,0 -0.051229,0 0.023544,-0.05973 z"
     id="path3785"
     inkscape:connector-curvature="0" />
  <path
     sodipodi:type="arc"
     style="fill:none;stroke:#d3d3d3;stroke-width:8.61749906;stroke-miterlimit:4;stroke-opacity:1;stroke-dasharray:none"
     id="path3787"
     sodipodi:cx="32.023548"
     sodipodi:cy="32.168209"
     sodipodi:rx="32.119427"
     sodipodi:ry="32.119427"
     d="m 64.142975,32.168209 a 32.119427,32.119427 0 1 1 -64.2388536,0 32.119427,32.119427 0 1 1 64.2388536,0 z"
     transform="matrix(0.87844512,0,0,0.87844512,3.8690705,3.7419937)" />
</svg>
